PathFileType	4	(X/Y/Z)	C:\Users\Public\Documents\Vicon Data\AADs Machine\Fixing_spring_distance_56\90_lb_Spring\90_lb_Static.trc
DataRate	CameraRate	NumFrames	NumMarkers	Units	OrigDataRate	OrigDataStartFrame	OrigNumFrames
100.0	100.0	42	8	mm	100.0	1	314	
Frame#	Time	SpringTop			MMAL			LMAL			Shank			Heel			Foot			Toe			MP5			
		X1	Y1	Z1	X2	Y2	Z2	X3	Y3	Z3	X4	Y4	Z4	X5	Y5	Z5	X6	Y6	Z6	X7	Y7	Z7	X8	Y8	Z8	
1	0	-357.75485	144.11934	-611.62195	-289.51709	101.98795	-674.79144	-273.2804	111.72998	-553.63892	-221.5455	275.9093	-630.37561	-357.15839	85.217453	-608.48944	-178.89771	57.524441	-614.78412	-105.65032	38.759689	-630.60144	-165.38942	40.900906	-562.60602
2	0.01	-357.7038	144.06401	-611.63788	-289.51163	101.96146	-674.77081	-273.27139	111.71973	-553.60486	-221.52827	275.89151	-630.29749	-357.15799	85.191772	-608.50623	-178.88997	57.494659	-614.76428	-105.65797	38.727257	-630.59283	-165.36713	40.867191	-562.60236
3	0.02	-357.72742	144.02928	-611.60065	-289.50415	101.93036	-674.73846	-273.27258	111.69951	-553.57855	-221.5425	275.88144	-630.23096	-357.1846	85.126442	-608.46643	-178.87636	57.487194	-614.76447	-105.65106	38.694157	-630.60492	-165.37979	40.839752	-562.59906
4	0.03	-357.76108	144.08749	-611.54071	-289.49249	102.00681	-674.72858	-273.26041	111.68738	-553.5755	-221.5305	275.91382	-630.18097	-357.1806	85.191879	-608.46289	-178.89676	57.508518	-614.73779	-105.6537	38.724514	-630.57141	-165.37508	40.862991	-562.58887
5	0.04	-357.74835	144.10643	-611.48114	-289.47824	102.0416	-674.69592	-273.28	111.69333	-553.52783	-221.53795	275.94241	-630.08124	-357.14252	85.212265	-608.40851	-178.87196	57.511593	-614.72882	-105.66806	38.750721	-630.55334	-165.38187	40.851765	-562.57324
6	0.05	-357.73254	144.06688	-611.47705	-289.5415	101.97323	-674.65796	-273.27982	111.6954	-553.46838	-221.56171	275.92947	-630.01166	-357.13907	85.145576	-608.45428	-178.88144	57.478748	-614.73059	-105.66407	38.736301	-630.56403	-165.39018	40.821178	-562.55011
7	0.06	-357.74039	144.0668	-611.40057	-289.49277	102.03427	-674.62793	-273.33337	111.70351	-553.42908	-221.59018	275.95718	-629.93408	-357.14395	85.116562	-608.41241	-178.90575	57.487225	-614.69391	-105.66724	38.747356	-630.54272	-165.41418	40.790657	-562.53796
8	0.07	-357.70639	144.11667	-611.39581	-289.48123	102.08973	-674.59174	-273.31586	111.69798	-553.41766	-221.59894	275.98279	-629.85803	-357.12796	85.171585	-608.37494	-178.87236	57.537537	-614.70105	-105.64578	38.791996	-630.54834	-165.38272	40.819824	-562.54126
9	0.08	-357.71289	144.10815	-611.3537	-289.48755	102.1153	-674.59039	-273.3154	111.67577	-553.38861	-221.61061	275.99139	-629.76862	-357.1344	85.176643	-608.35925	-178.85832	57.526741	-614.68097	-105.66057	38.798073	-630.53821	-165.40002	40.815952	-562.52386
10	0.09	-357.76651	143.99962	-611.33746	-289.46851	102.05972	-674.55597	-273.36017	111.65959	-553.31482	-221.61812	275.9787	-629.6875	-357.12897	85.090034	-608.35608	-178.86787	57.484806	-614.66815	-105.68027	38.752491	-630.51208	-165.39806	40.760757	-562.51636
11	0.1	-357.78134	144.07245	-611.2561	-289.47433	102.13091	-674.55249	-273.33414	111.68584	-553.30078	-221.63179	276.00397	-629.62927	-357.12146	85.156525	-608.31616	-178.86659	57.5196	-614.66895	-105.66371	38.819893	-630.50928	-165.39368	40.769836	-562.52026
12	0.11	-357.75586	144.11002	-611.21368	-289.46509	102.18052	-674.52881	-273.35825	111.67867	-553.26501	-221.67307	276.03488	-629.5564	-357.08566	85.16346	-608.31897	-178.85156	57.538593	-614.66425	-105.66343	38.834091	-630.5025	-165.424	40.796349	-562.49719
13	0.12	-357.78998	144.022	-611.18207	-289.49313	102.14024	-674.5213	-273.35904	111.65894	-553.26685	-221.65907	275.99701	-629.51184	-357.10297	85.121773	-608.32666	-178.84598	57.500587	-614.65479	-105.68623	38.785473	-630.50275	-165.39708	40.749813	-562.50806
14	0.13	-357.77405	144.0549	-611.20477	-289.49039	102.14934	-674.52521	-273.39011	111.66767	-553.26013	-221.7005	276.00168	-629.50616	-357.09393	85.098488	-608.32922	-178.86002	57.498211	-614.65686	-105.6895	38.80909	-630.49738	-165.44153	40.755531	-562.50464
15	0.14	-357.77499	144.0981	-611.1886	-289.45627	102.20117	-674.51312	-273.38864	111.68859	-553.22668	-221.69081	276.03076	-629.47559	-357.09293	85.163895	-608.30444	-178.84753	57.545105	-614.63843	-105.68066	38.838184	-630.48749	-165.42702	40.783543	-562.48138
16	0.15	-357.74026	144.06876	-611.17407	-289.49622	102.20911	-674.55737	-273.35709	111.66243	-553.24341	-221.66951	276.005	-629.46521	-357.08026	85.142586	-608.33319	-178.84132	57.508015	-614.65063	-105.67734	38.835598	-630.48944	-165.42584	40.744942	-562.48199
17	0.16	-357.77588	144.02641	-611.21088	-289.50824	102.10094	-674.48071	-273.37888	111.66133	-553.23328	-221.66879	275.99411	-629.46521	-357.08643	85.099869	-608.29291	-178.84641	57.487816	-614.65619	-105.6701	38.791962	-630.48987	-165.4306	40.751823	-562.49243
18	0.17	-357.77356	144.09425	-611.17194	-289.48709	102.14124	-674.49408	-273.32904	111.716	-553.22937	-221.62161	276.0311	-629.47308	-357.05551	85.153854	-608.29053	-178.84317	57.524021	-614.65448	-105.66595	38.813946	-630.49127	-165.42719	40.762589	-562.49115
19	0.18	-357.71957	144.10524	-611.14618	-289.48593	102.15652	-674.47687	-273.32666	111.66844	-553.22882	-221.57707	276.00003	-629.41876	-357.05133	85.155823	-608.27356	-178.85431	57.521114	-614.63525	-105.66259	38.835621	-630.49225	-165.41824	40.747105	-562.46936
20	0.19	-357.73181	144.07568	-611.15326	-289.49329	102.11517	-674.46716	-273.30438	111.68098	-553.216	-221.56763	275.96835	-629.4162	-357.07263	85.145027	-608.24261	-178.84331	57.487007	-614.62122	-105.67258	38.773777	-630.47266	-165.41582	40.732304	-562.47589
21	0.2	-357.71985	144.14351	-611.16016	-289.48215	102.13898	-674.44122	-273.29709	111.69227	-553.19775	-221.53186	275.98007	-629.39691	-357.06876	85.152908	-608.27881	-178.85063	57.492233	-614.64484	-105.67396	38.767578	-630.47278	-165.40866	40.72007	-562.48663
22	0.21	-357.74234	144.12917	-611.11957	-289.44714	102.22051	-674.46613	-273.28485	111.66717	-553.19397	-221.50394	275.96896	-629.35706	-357.05615	85.154953	-608.23438	-178.84799	57.491436	-614.63129	-105.64903	38.787319	-630.47455	-165.41711	40.712322	-562.48688
23	0.22	-357.70615	144.1013	-611.13934	-289.4566	102.21857	-674.47272	-273.28302	111.66933	-553.18738	-221.476	275.9584	-629.30914	-357.04599	85.16758	-608.24011	-178.84016	57.485809	-614.63055	-105.63306	38.776302	-630.47986	-165.38791	40.696819	-562.47644
24	0.23	-357.73331	144.14844	-611.08228	-289.44177	102.20551	-674.45673	-273.26819	111.66782	-553.12787	-221.47083	275.95203	-629.27386	-357.05533	85.163925	-608.19293	-178.85123	57.486095	-614.61511	-105.65795	38.775009	-630.46063	-165.37921	40.697178	-562.47595
25	0.24	-357.70407	144.12357	-611.09009	-289.44885	102.18024	-674.40204	-273.29681	111.64749	-553.16284	-221.43092	275.94855	-629.27325	-357.05557	85.198349	-608.20227	-178.83836	57.482162	-614.6059	-105.65526	38.765907	-630.47522	-165.38336	40.681076	-562.46698
26	0.25	-357.65088	144.12509	-611.06628	-289.45905	102.23248	-674.43213	-273.24088	111.66448	-553.11743	-221.43665	275.92453	-629.22589	-357.03442	85.161278	-608.2478	-178.82397	57.499996	-614.58307	-105.65157	38.789963	-630.44977	-165.38028	40.680233	-562.45361
27	0.26	-357.63983	144.14752	-611.05176	-289.44705	102.18283	-674.39606	-273.27316	111.6348	-553.151	-221.41261	275.93185	-629.22089	-357.04712	85.153152	-608.17853	-178.80977	57.495312	-614.6015	-105.6351	38.777817	-630.43408	-165.38248	40.665707	-562.45575
28	0.27	-357.6825	144.17293	-611.06885	-289.43884	102.19327	-674.38824	-273.26364	111.65303	-553.14294	-221.41599	275.96017	-629.20673	-357.04364	85.2043	-608.19373	-178.84584	57.490585	-614.60236	-105.64323	38.782246	-630.43958	-165.39638	40.673458	-562.45624
29	0.28	-357.64185	144.11606	-611.05493	-289.43915	102.18912	-674.38489	-273.25146	111.65022	-553.10059	-221.41814	275.93753	-629.17664	-357.03949	85.132889	-608.20441	-178.8371	57.469028	-614.59308	-105.53947	38.988121	-630.55042	-165.37112	40.668285	-562.44958
30	0.29	-357.65216	144.12009	-611.04565	-289.42654	102.23027	-674.37372	-273.23871	111.64832	-553.0993	-221.3833	275.95035	-629.1521	-357.01895	85.17733	-608.19543	-178.83017	57.481869	-614.60162	-105.52904	38.977493	-630.57562	-165.38037	40.643288	-562.45251
31	0.3	-357.72037	144.16521	-611.03583	-289.43918	102.20056	-674.36713	-273.2662	111.63792	-553.11444	-221.42834	275.95969	-629.13593	-357.065	85.174133	-608.18103	-178.82843	57.488251	-614.58942	-105.53344	39.020355	-630.55109	-165.40161	40.653954	-562.44696
32	0.31	-357.63281	144.11722	-611.06854	-289.41507	102.18256	-674.36542	-273.25845	111.63007	-553.09552	-221.41638	275.93188	-629.11377	-357.01282	85.169754	-608.20691	-178.82797	57.471481	-614.58771	-105.53175	38.987789	-630.55524	-165.38336	40.639194	-562.44641
33	0.32	-357.62	144.15695	-611.03009	-289.45267	102.18221	-674.34149	-273.263	111.65158	-553.07269	-221.39302	275.96436	-629.099	-357.03281	85.176422	-608.15649	-178.827	57.47533	-614.57446	-105.53195	38.983524	-630.54865	-165.38483	40.638702	-562.43903
34	0.33	-357.66156	144.1689	-611.02405	-289.42584	102.2307	-674.34509	-273.25888	111.63701	-553.1048	-221.4247	275.96347	-629.10681	-357.03928	85.193336	-608.13928	-178.8201	57.462719	-614.58704	-105.54017	38.979687	-630.53424	-165.38089	40.657001	-562.45361
35	0.34	-357.65109	144.147	-611.07739	-289.45068	102.17763	-674.37988	-273.23688	111.62165	-553.07074	-221.42477	275.92899	-629.12067	-357.06342	85.167885	-608.21497	-178.82516	57.46479	-614.58319	-105.52834	38.984657	-630.56238	-165.37541	40.641354	-562.45502
36	0.35	-357.62628	144.09753	-611.04504	-289.45819	102.17878	-674.38623	-273.24899	111.64162	-553.07611	-221.42007	275.9437	-629.10968	-357.0444	85.114319	-608.20239	-178.8365	57.469055	-614.57916	-105.53989	38.988621	-630.54919	-165.37694	40.633945	-562.44843
37	0.36	-357.68472	144.12581	-611.04712	-289.44611	102.24477	-674.36194	-273.27313	111.64863	-553.06201	-221.43372	276.0051	-629.10828	-357.04688	85.150909	-608.14545	-178.83011	57.509857	-614.56555	-105.53645	38.996483	-630.53687	-165.40007	40.670277	-562.42255
38	0.37	-357.68573	144.13524	-611.0755	-289.45691	102.19872	-674.37152	-273.26013	111.61935	-553.12463	-221.43738	275.93939	-629.15796	-357.03665	85.171806	-608.21771	-178.84662	57.471172	-614.58038	-105.54776	38.994839	-630.56024	-165.36736	40.659195	-562.44543
39	0.38	-357.67142	144.12128	-611.01917	-289.45001	102.18254	-674.39923	-273.25443	111.62103	-553.11353	-221.44949	275.92999	-629.16797	-357.03302	85.159035	-608.20331	-178.82076	57.467121	-614.59064	-105.52636	38.96986	-630.56537	-165.3788	40.651558	-562.45178
40	0.39	-357.67197	144.14191	-611.04852	-289.47394	102.18356	-674.38593	-273.26309	111.65775	-553.07867	-221.46587	275.95392	-629.19019	-357.05447	85.163055	-608.21075	-178.84665	57.476719	-614.5802	-105.52679	38.993931	-630.5658	-165.41156	40.665283	-562.44183
41	0.4	-357.69467	144.12836	-611.0545	-289.48923	102.21416	-674.38831	-273.27344	111.65151	-553.10004	-221.47974	275.9776	-629.20422	-357.08499	85.174347	-608.16382	-178.84473	57.49202	-614.59064	-105.52815	39.002476	-630.56378	-165.40031	40.671066	-562.44635
42	0.41	-357.69272	144.1376	-611.04407	-289.47046	102.15919	-674.39435	-273.26004	111.63754	-553.12256	-221.4702	275.93948	-629.23492	-357.07574	85.145187	-608.22198	-178.84212	57.47361	-614.60101	-105.53773	38.993881	-630.58435	-165.37753	40.643089	-562.47003
